<svg xmlns="http://www.w3.org/2000/svg" version="1.0" width="600.000000pt" height="600.000000pt" viewBox="0 0 600.000000 600.000000" preserveAspectRatio="xMidYMid meet">

<g transform="translate(0.000000,600.000000) scale(0.100000,-0.100000)" fill="#ffb39b" stroke="none">
<path d="M3140 5772 c-93 -47 -111 -57 -218 -121 -330 -195 -624 -466 -810 -743 -75 -113 -95 -149 -142 -253 -47 -104 -47 -105 -68 -170 -18 -55 -25 -81 -53 -200 -5 -22 -13 -101 -18 -175 -14 -216 8 -369 81 -555 37 -93 122 -261 147 -290 10 -11 20 -27 23 -35 5 -13 93 -136 108 -150 3 -3 23 -27 45 -55 85 -107 385 -399 425 -413 15 -5 80 -70 80 -80 0 -5 -37 -32 -82 -59 -165 -101 -363 -280 -465 -418 -12 -17 -36 -50 -55 -75 -120 -160 -252 -434 -337 -698 -24 -72 -47 -132 -51 -132 -15 0 -70 52 -70 66 0 7 9 29 19 48 11 19 26 62 32 94 11 52 10 67 -5 114 -17 52 -30 192 -41 463 -9 206 -37 353 -96 497 -40 98 -89 323 -89 410 0 24 -4 80 -10 124 -5 43 -11 140 -13 214 -4 151 -11 179 -85 330 -46 94 -47 96 -47 195 0 55 8 170 19 255 13 115 16 187 12 282 l-7 126 32 29 c115 103 162 178 199 319 48 185 1 367 -134 512 -136 147 -376 177 -557 70 -175 -104 -314 -326 -348 -555 -14 -91 -14 -301 -1 -379 21 -121 32 -180 40 -204 4 -14 13 -45 20 -70 14 -51 28 -95 40 -125 4 -11 14 -36 21 -55 7 -19 26 -64 42 -100 89 -195 97 -226 77 -299 -5 -20 -19 -88 -30 -151 -12 -63 -25 -133 -30 -155 -5 -22 -23 -114 -40 -205 -18 -91 -40 -208 -50 -260 -11 -52 -31 -158 -46 -235 -29 -157 -36 -175 -64 -175 -29 0 -84 -39 -111 -79 -34 -49 -34 -152 -1 -198 70 -98 208 -109 290 -23 74 77 66 191 -18 262 -22 19 -40 43 -40 52 0 15 11 78 40 221 5 28 19 95 29 150 11 55 34 174 51 265 17 91 40 208 51 260 10 52 19 98 19 102 0 4 5 8 10 8 7 0 10 -278 10 -814 l0 -814 -28 -10 c-42 -14 -101 -70 -117 -110 -22 -51 -19 -134 6 -179 39 -68 95 -104 170 -106 68 -3 78 -17 51 -66 -32 -57 -31 -143 4 -188 23 -30 24 -37 14 -69 -7 -21 -9 -54 -5 -79 9 -62 70 -115 132 -115 l43 0 0 -51 c0 -62 13 -89 44 -89 28 0 36 16 36 75 0 72 3 75 82 75 l70 0 -7 -55 c-9 -74 -1 -95 35 -95 34 0 33 -1 49 136 14 114 14 221 1 229 -5 3 -10 17 -10 31 0 22 4 24 44 24 25 0 48 5 51 10 3 6 15 10 25 10 18 0 19 -8 13 -194 -7 -228 -4 -246 36 -246 18 0 31 6 35 17 4 10 10 109 13 220 3 112 8 203 10 203 2 0 30 -18 62 -39 32 -22 74 -49 94 -60 20 -12 54 -30 74 -42 136 -77 217 -155 254 -245 35 -85 51 -79 195 68 66 68 147 157 180 198 71 88 154 204 154 215 0 4 6 13 14 19 42 32 306 518 306 563 0 4 12 33 26 63 30 61 35 74 60 143 9 26 19 47 22 47 5 0 99 -42 132 -59 13 -7 15 -89 15 -642 0 -349 4 -642 9 -651 11 -24 53 -23 66 1 6 13 10 236 10 655 l0 634 38 13 c20 7 52 21 71 31 19 11 37 16 42 11 4 -4 22 -44 39 -88 17 -44 40 -95 51 -113 10 -18 19 -39 19 -47 0 -22 142 -298 215 -420 77 -128 212 -318 271 -384 23 -25 71 -80 106 -121 83 -96 190 -190 217 -190 23 0 41 27 33 50 -3 8 -46 56 -97 105 -302 296 -558 695 -740 1154 -56 143 -57 145 -41 178 10 21 16 60 16 106 0 96 -28 156 -104 223 l-56 50 43 24 c71 40 257 168 366 254 118 91 318 285 407 393 191 231 298 524 279 763 -17 214 -64 366 -192 612 -70 134 -290 381 -469 524 -114 91 -320 216 -433 262 -72 29 -177 30 -240 1 -279 -124 -522 -309 -742 -562 -32 -37 -59 -74 -59 -82 0 -8 -4 -15 -10 -15 -33 0 -196 -308 -231 -435 -4 -16 -13 -48 -19 -70 -11 -38 -24 -130 -37 -259 -10 -102 23 -280 73 -396 32 -73 86 -174 119 -223 19 -29 35 -55 35 -60 0 -21 239 -271 360 -375 81 -71 276 -212 400 -290 52 -33 95 -64 95 -70 0 -5 -20 -25 -45 -44 -66 -50 -105 -132 -104 -217 0 -36 7 -84 15 -107 9 -23 12 -49 8 -60 -114 -299 -196 -477 -318 -687 -28 -49 -51 -92 -51 -97 0 -5 -4 -10 -8 -12 -4 -1 -35 -41 -67 -88 -105 -150 -349 -430 -374 -430 -6 0 -15 10 -20 23 -25 64 -165 179 -314 257 -50 26 -58 49 -38 102 5 13 14 41 21 63 17 56 69 204 85 240 53 123 75 170 112 238 24 42 43 79 43 82 0 3 39 60 87 127 99 140 299 348 403 418 36 24 68 48 71 53 4 5 49 32 100 61 128 70 129 79 15 169 -46 37 -87 67 -90 67 -19 0 -403 399 -464 482 -40 54 -72 99 -72 102 0 2 -17 31 -38 63 -100 151 -189 382 -207 533 -12 109 -13 146 -4 240 37 392 191 716 488 1024 179 185 339 310 600 470 193 117 264 150 313 143 50 -7 149 -55 301 -148 26 -16 51 -29 55 -29 4 0 18 -10 32 -21 14 -11 63 -46 110 -78 245 -169 504 -433 642 -656 58 -93 123 -231 156 -330 29 -87 36 -116 63 -235 20 -86 18 -380 -3 -465 -36 -149 -112 -326 -190 -447 -21 -32 -38 -61 -38 -64 0 -5 -83 -114 -144 -189 -107 -130 -244 -264 -416 -403 -52 -42 -109 -92 -128 -110 -31 -29 -33 -34 -21 -53 8 -11 39 -34 69 -51 76 -42 180 -111 244 -164 30 -24 58 -44 61 -44 10 0 153 -149 215 -225 118 -145 246 -365 320 -550 54 -136 127 -356 145 -440 3 -16 10 -48 15 -70 15 -65 18 -86 30 -170 17 -114 27 -137 59 -133 25 3 26 5 25 68 -4 142 -117 588 -196 770 -27 61 -124 258 -145 295 -10 17 -31 53 -47 80 -78 133 -243 325 -396 460 -49 43 -257 185 -271 185 -23 0 -2 23 94 102 119 100 300 275 378 368 29 36 56 67 59 70 16 16 74 97 127 175 116 174 201 373 238 560 29 146 16 408 -31 588 -34 132 -131 363 -184 438 -11 15 -20 30 -20 33 0 8 -92 136 -144 201 -205 255 -619 575 -948 733 -53 26 -79 32 -130 32 -55 0 -74 -6 -158 -48z m287 -503 c283 -135 607 -411 770 -654 100 -149 106 -167 99 -254 -15 -165 -16 -168 -83 -129 -21 11 -47 26 -58 32 -11 6 -38 24 -60 40 -130 96 -150 111 -155 116 -3 3 -21 18 -40 34 -148 121 -352 338 -494 524 -53 69 -80 78 -104 32 -20 -39 -3 -423 23 -507 12 -38 -21 -28 -77 25 -54 50 -138 158 -138 178 0 6 -7 17 -15 24 -15 12 -65 111 -65 127 0 21 -34 92 -46 97 -29 11 -43 -8 -70 -92 -15 -48 -31 -91 -36 -96 -4 -6 -8 -21 -8 -34 0 -14 -6 -30 -14 -36 -7 -6 -29 -40 -48 -76 -60 -111 -136 -234 -165 -264 l-28 -30 -6 97 c-7 99 -18 127 -49 127 -22 0 -31 -12 -60 -85 -39 -100 -160 -259 -180 -239 -6 6 -13 58 -16 116 l-7 106 33 58 c61 107 129 197 243 321 62 67 116 122 120 122 4 1 36 25 71 55 86 73 224 165 354 236 100 55 111 59 176 59 57 1 79 -4 133 -30z m-2152 -10 c114 -43 220 -176 251 -318 15 -65 15 -86 5 -155 -33 -212 -162 -359 -316 -358 -119 1 -227 95 -254 221 -22 103 28 188 145 247 52 27 59 34 59 60 0 40 -29 42 -99 8 -66 -32 -126 -85 -157 -139 -21 -34 -24 -53 -24 -135 0 -85 3 -100 28 -145 36 -64 71 -104 127 -141 61 -42 102 -54 176 -54 37 0 66 -5 70 -12 12 -18 6 -364 -6 -442 -14 -85 -32 -107 -115 -146 -75 -35 -162 -52 -240 -48 l-60 3 -26 50 c-14 28 -33 70 -43 95 -10 25 -24 59 -31 75 -21 47 -71 203 -90 278 -61 250 -60 493 1 673 40 117 147 262 244 329 108 75 244 96 355 54z m2176 -466 c40 -49 105 -121 143 -161 39 -40 72 -79 74 -87 2 -9 -8 -15 -29 -17 -39 -4 -59 -30 -43 -55 8 -14 30 -20 85 -24 95 -8 108 -14 204 -91 88 -71 244 -177 318 -215 26 -14 50 -29 53 -35 15 -24 -46 -346 -96 -503 -40 -124 -87 -211 -162 -297 -13 -14 -30 -35 -39 -45 -43 -50 -191 -161 -267 -201 -154 -80 -245 -105 -392 -105 -108 0 -137 5 -258 42 -81 25 -220 105 -307 178 -22 18 -49 41 -61 51 -44 37 -143 166 -177 230 -64 123 -137 399 -153 583 l-6 76 51 48 c28 26 68 69 88 96 50 66 62 64 51 -8 -10 -65 -5 -98 17 -107 26 -9 43 4 90 68 25 33 51 68 58 76 8 8 29 38 47 65 56 83 61 85 174 94 91 7 114 24 82 60 -15 17 -31 21 -78 21 -32 0 -58 2 -58 4 0 2 16 35 35 72 19 38 35 76 36 84 2 38 59 103 59 67 0 -8 9 -26 20 -40 11 -14 20 -30 20 -37 0 -16 72 -117 117 -165 45 -48 137 -125 149 -125 5 0 20 -9 34 -20 30 -23 76 -26 84 -5 3 9 -5 89 -18 178 -21 146 -34 337 -23 337 3 0 38 -39 78 -87z m-1211 -587 c0 -33 -15 -56 -37 -56 -9 0 -11 10 -6 33 13 70 43 87 43 23z m2153 -3 c8 -27 13 -50 12 -51 -2 -2 -13 -1 -24 3 -17 5 -21 15 -21 51 0 58 16 56 33 -3z m-2123 -220 c10 -72 35 -197 67 -340 10 -43 -35 -27 -96 35 -66 65 -81 107 -81 222 0 72 9 97 54 148 33 37 42 27 56 -65z m2123 55 c40 -55 50 -92 45 -171 -7 -109 -57 -196 -135 -236 -41 -21 -53 -15 -42 22 16 53 43 188 69 345 13 82 26 90 63 40z m-3139 -354 c10 -26 6 -57 -12 -90 -31 -55 -141 -139 -217 -165 -22 -7 -46 -18 -54 -23 -16 -13 -41 17 -41 50 0 13 -4 33 -9 46 -4 13 -11 44 -15 71 l-7 47 68 0 c79 0 155 18 221 53 59 30 59 30 66 11z m1024 -134 c9 -5 35 -14 57 -20 38 -9 44 -15 75 -82 19 -39 56 -101 83 -136 26 -36 47 -68 47 -72 0 -3 30 -31 68 -60 37 -30 72 -58 77 -64 37 -39 155 -115 258 -164 l67 -33 0 -89 c0 -50 -4 -90 -8 -90 -5 0 -35 19 -68 42 -238 170 -460 389 -591 583 -36 54 -103 177 -103 190 0 8 19 6 38 -5z m2082 6 c0 -16 -120 -222 -149 -255 -12 -13 -21 -28 -21 -32 0 -14 -150 -172 -271 -283 -74 -69 -304 -246 -319 -246 -13 0 -24 151 -13 169 5 8 50 35 99 60 127 65 207 123 300 215 97 98 157 177 204 271 34 67 37 70 82 80 25 5 50 13 54 18 8 7 34 10 34 3z m-3022 -119 c44 -97 42 -110 -13 -136 -25 -12 -52 -21 -60 -21 -8 0 -15 -7 -15 -15 0 -12 16 -15 80 -15 l80 0 0 -36 c0 -59 -8 -67 -127 -135 -42 -24 -156 -57 -224 -65 -50 -6 -58 -4 -62 12 -6 20 -21 136 -19 144 1 3 57 7 124 10 l123 5 3 33 c2 21 -1 32 -10 32 -7 1 -64 3 -127 5 -116 3 -130 9 -131 45 0 10 16 21 38 29 101 35 218 103 228 133 3 10 11 18 18 18 8 0 19 7 26 15 22 26 34 16 68 -58z m76 -489 c16 -235 45 -382 115 -580 68 -195 76 -250 86 -610 5 -190 4 -195 -42 -163 -32 23 -43 70 -51 217 l-7 133 -30 0 -30 0 -3 -115 c-1 -63 -7 -119 -11 -123 -5 -5 -23 -1 -40 7 -29 16 -31 20 -31 74 0 31 7 111 15 177 20 168 19 221 -11 354 -34 150 -113 365 -137 369 -15 3 -17 -6 -17 -66 0 -43 8 -91 20 -128 51 -146 71 -254 71 -373 0 -64 -5 -143 -11 -176 -5 -33 -10 -86 -10 -117 0 -49 -3 -58 -18 -58 -41 0 -49 20 -55 135 -3 65 -16 154 -32 220 -14 60 -30 166 -36 235 -13 170 -23 220 -74 377 -63 192 -64 185 15 198 100 18 123 25 225 77 39 19 75 36 81 37 7 1 14 -35 18 -101z m1926 -73 c47 3 104 7 128 9 l42 3 0 -102 c0 -118 7 -108 -123 -185 l-89 -52 -104 63 -104 63 0 106 c0 59 2 109 5 112 3 2 40 -2 82 -10 51 -9 108 -11 163 -7z m-2326 -220 c33 -99 45 -171 56 -325 5 -71 20 -168 34 -225 14 -55 28 -143 32 -196 l7 -95 -41 -12 c-26 -8 -54 -27 -77 -54 -29 -35 -39 -41 -53 -32 -16 10 -17 53 -20 535 -1 288 0 531 4 539 5 14 22 -24 58 -135z m2399 -231 c80 -55 112 -165 73 -246 -70 -145 -250 -169 -347 -47 -64 79 -60 182 10 260 67 75 182 90 264 33z m-2766 -196 c54 -59 50 -122 -11 -159 -42 -25 -73 -24 -112 6 -53 41 -54 106 -3 154 32 30 98 29 126 -1z m575 -527 c24 -10 87 -38 141 -61 102 -45 137 -75 137 -118 0 -37 -37 -72 -75 -72 -44 0 -316 106 -337 131 -28 33 -23 91 9 123 31 31 52 30 125 -3z m-255 -76 c11 -8 24 -31 28 -51 5 -31 2 -41 -18 -63 -14 -14 -30 -45 -36 -67 -14 -52 -27 -57 -79 -34 -72 33 -94 115 -46 177 40 52 106 69 151 38z m673 -165 c48 -90 -72 -300 -171 -300 -31 0 -40 22 -16 37 34 20 50 63 44 122 -5 56 -4 59 28 84 17 14 40 42 49 61 15 31 20 35 36 26 11 -6 24 -19 30 -30z m-413 -35 c153 -58 193 -83 193 -121 0 -27 -24 -54 -48 -54 -24 0 -130 24 -236 53 -97 27 -116 42 -116 93 0 30 32 84 51 84 5 0 75 -25 156 -55z m-74 -211 c180 -42 207 -54 207 -99 0 -31 -25 -55 -58 -55 -15 1 -75 7 -133 13 -124 15 -159 32 -159 78 0 50 30 94 58 84 7 -3 45 -12 85 -21z m131 -230 c96 -4 110 -12 95 -52 -12 -32 -38 -38 -174 -46 -129 -6 -145 -2 -159 42 -5 15 -2 32 9 49 16 24 20 25 79 18 33 -4 101 -9 150 -11z" fill="#ffb39b"/>
<path d="M2855 4128 c-51 -29 -60 -84 -20 -123 37 -38 91 -31 118 15 24 39 21 57 -12 91 -31 31 -54 35 -86 17z" fill="#ffb39b"/>
<path d="M3651 4104 c-28 -35 -26 -69 4 -99 72 -73 175 30 107 108 -24 28 -86 23 -111 -9z" fill="#ffb39b"/>
<path d="M3072 3918 c-32 -32 1 -60 96 -83 169 -41 424 17 360 82 -16 15 -21 15 -80 -3 -82 -25 -245 -25 -302 -1 -46 20 -58 21 -74 5z" fill="#ffb39b"/>
<path d="M3460 1669 c-39 -16 -59 -39 -70 -80 -20 -72 27 -138 102 -146 129 -13 181 165 64 221 -38 18 -60 19 -96 5z m80 -89 c15 -28 -4 -60 -35 -60 -14 0 -29 8 -35 20 -15 28 4 60 35 60 14 0 29 -8 35 -20z" fill="#ffb39b"/>
<path d="M3480 1062 c-61 -9 -110 -81 -95 -139 18 -72 94 -118 155 -93 48 20 80 65 80 114 0 79 -60 130 -140 118z m59 -100 c11 -21 -11 -62 -33 -62 -23 0 -48 37 -41 59 8 27 60 29 74 3z" fill="#ffb39b"/>
</g>
</svg>