<?xml version="1.0" standalone="no"?>
<!DOCTYPE svg PUBLIC "-//W3C//DTD SVG 20010904//EN"
 "http://www.w3.org/TR/2001/REC-SVG-20010904/DTD/svg10.dtd">
<svg version="1.0" xmlns="http://www.w3.org/2000/svg"
 width="100.000000pt" height="100.000000pt" viewBox="0 0 100.000000 100.000000"
 preserveAspectRatio="xMidYMid meet">

<g transform="translate(0.000000,100.000000) scale(0.100000,-0.100000)"
fill="#000000" stroke="none">
<path d="M807 920 c-14 -11 -29 -20 -34 -20 -4 0 -71 -63 -148 -140 l-140
-140 -152 152 c-145 145 -155 153 -192 153 -72 0 -119 -72 -87 -132 8 -15 78
-91 155 -168 l141 -140 -114 -115 c-109 -111 -114 -118 -146 -203 -21 -59 -29
-92 -22 -99 6 -6 40 1 101 24 89 32 94 36 203 145 l111 111 86 -65 c71 -54 88
-73 98 -106 24 -80 98 -126 185 -113 45 7 108 39 108 55 0 5 -17 18 -37 28
-29 14 -42 28 -54 62 -19 52 -60 91 -95 91 -13 0 -24 6 -24 13 0 6 -29 48 -64
92 l-65 80 140 140 c76 77 139 144 139 149 0 4 9 19 20 33 27 35 26 78 -5 108
-30 31 -73 32 -108 5z m81 -32 c17 -17 15 -43 -3 -58 -13 -11 -21 -8 -45 15
-23 22 -27 32 -19 42 14 16 51 17 67 1z m-504 -227 c209 -209 227 -230 217
-250 -7 -11 -23 -29 -37 -38 l-26 -17 -229 230 c-126 127 -229 238 -229 247 0
22 35 57 58 57 9 0 120 -103 246 -229z m433 157 c39 -38 40 -48 10 -76 l-23
-21 -43 40 -44 39 23 25 c30 32 37 31 77 -7z m-82 -88 l39 -40 -89 -90 -89
-90 -43 42 -43 42 87 88 c48 48 90 88 93 88 3 0 24 -18 45 -40z m-372 -452
c-54 -54 -103 -98 -110 -98 -6 0 -13 12 -15 28 -2 21 -9 28 -30 30 -16 2 -28
9 -28 15 0 6 44 56 97 109 l97 98 43 -42 43 -42 -97 -98z m316 73 c33 -42 38
-60 19 -79 -19 -19 -40 -14 -82 22 l-38 33 28 30 c16 17 32 31 36 32 3 0 20
-17 37 -38z m130 -117 c12 -15 21 -34 21 -43 0 -9 9 -30 19 -48 l20 -32 -28
-6 c-84 -18 -177 87 -119 135 32 27 63 25 87 -6z m-602 -61 c10 -21 8 -24 -28
-34 -22 -7 -42 -9 -46 -6 -3 4 -1 24 6 46 10 36 13 38 34 28 13 -6 28 -21 34
-34z"/>
</g>
</svg>
