<?xml version="1.0" standalone="no"?>
<!DOCTYPE svg PUBLIC "-//W3C//DTD SVG 20010904//EN"
 "http://www.w3.org/TR/2001/REC-SVG-20010904/DTD/svg10.dtd">
<svg version="1.0" xmlns="http://www.w3.org/2000/svg"
 width="100.000000pt" height="100.000000pt" viewBox="0 0 100.000000 100.000000"
 preserveAspectRatio="xMidYMid meet">

<g transform="translate(0.000000,100.000000) scale(0.100000,-0.100000)"
fill="#000000" stroke="none">
<path d="M60 900 c-19 -19 -20 -33 -20 -320 0 -287 1 -301 20 -320 18 -18 33
-20 170 -20 l150 0 0 -30 c0 -28 -3 -30 -35 -30 -49 0 -87 -38 -83 -83 l3 -32
235 0 235 0 3 32 c4 45 -34 83 -83 83 -32 0 -35 2 -35 30 l0 30 150 0 c137 0
152 2 170 20 19 19 20 33 20 320 0 287 -1 301 -20 320 -19 19 -33 20 -440 20
-407 0 -421 -1 -440 -20z m858 -242 l2 -218 -420 0 -420 0 0 213 c0 118 3 217
7 220 4 4 191 6 417 5 l411 -3 3 -217z m0 -315 l-3 -58 -415 0 -415 0 -3 58
-3 57 421 0 421 0 -3 -57z m-338 -133 l0 -30 -80 0 -80 0 0 30 0 30 80 0 80 0
0 -30z m108 -82 c7 -7 12 -16 12 -20 0 -4 -90 -8 -200 -8 -110 0 -200 4 -200
8 0 4 5 13 12 20 17 17 359 17 376 0z"/>
<path d="M820 340 c0 -13 7 -20 20 -20 13 0 20 7 20 20 0 13 -7 20 -20 20 -13
0 -20 -7 -20 -20z"/>
</g>
</svg>
