<?xml version="1.0" standalone="no"?>
<!DOCTYPE svg PUBLIC "-//W3C//DTD SVG 20010904//EN"
 "http://www.w3.org/TR/2001/REC-SVG-20010904/DTD/svg10.dtd">
<svg version="1.0" xmlns="http://www.w3.org/2000/svg"
 width="100.000000pt" height="100.000000pt" viewBox="0 0 100.000000 100.000000"
 preserveAspectRatio="xMidYMid meet">

<g transform="translate(0.000000,100.000000) scale(0.100000,-0.100000)"
fill="#000000" stroke="none">
<path d="M150 908 c0 -48 -12 -69 -41 -75 -16 -3 -29 -9 -29 -13 0 -4 13 -10
29 -13 29 -6 41 -27 41 -74 0 -13 5 -23 10 -23 6 0 10 10 10 23 0 47 12 68 41
74 16 3 29 9 29 13 0 4 -13 10 -29 13 -29 6 -41 27 -41 75 0 12 -4 22 -10 22
-5 0 -10 -10 -10 -22z"/>
<path d="M685 865 c-26 -33 -28 -34 -55 -20 -45 23 -73 18 -109 -19 -24 -25
-45 -36 -79 -41 -129 -19 -229 -90 -284 -203 -30 -60 -33 -75 -33 -157 0 -82
3 -97 32 -156 39 -79 102 -140 181 -177 49 -23 70 -27 147 -27 82 0 97 3 157
33 113 55 184 155 203 284 5 34 16 55 41 79 37 36 42 64 19 109 -14 27 -13 29
20 55 19 14 35 35 35 46 0 74 -155 229 -229 229 -11 0 -32 -16 -46 -35z m118
-40 c70 -54 142 -155 110 -155 -41 0 -183 142 -183 183 0 16 30 5 73 -28z
m-192 -15 c15 -9 17 -15 9 -30 -15 -28 -26 -25 -39 10 -11 33 -4 37 30 20z
m111 -28 c18 -30 100 -111 133 -130 19 -11 19 -13 -15 -42 -59 -50 -65 -49
-136 21 -35 35 -67 72 -70 81 -5 17 48 98 65 98 4 0 14 -13 23 -28z m-147 -59
c48 -73 158 -182 219 -218 45 -26 46 -28 30 -46 -9 -11 -24 -19 -33 -19 -39 0
-174 109 -236 192 -55 73 -64 102 -40 128 10 11 19 20 20 20 1 0 19 -26 40
-57z m-115 -2 c0 -29 73 -131 136 -192 78 -75 139 -117 180 -125 31 -6 33 -8
27 -38 -20 -107 -104 -206 -208 -245 -153 -58 -332 14 -404 163 -33 67 -39
166 -16 241 31 99 132 192 232 214 44 9 53 6 53 -18z m410 -170 c17 -34 13
-41 -20 -30 -33 12 -36 19 -18 37 17 17 26 15 38 -7z"/>
<path d="M236 558 c-62 -99 -35 -266 55 -342 62 -52 109 -70 184 -71 173 0
301 137 218 236 -52 61 -141 76 -247 39 -103 -35 -157 -3 -164 100 -5 65 -20
78 -46 38z m50 -154 c12 -13 40 -28 62 -34 35 -9 50 -7 99 10 127 44 233 12
233 -72 0 -51 -116 -127 -194 -128 -69 0 -118 21 -171 75 -54 53 -75 103 -74
171 0 35 2 37 12 20 7 -11 22 -30 33 -42z"/>
<path d="M891 208 c-1 -18 -8 -29 -23 -34 l-23 -7 23 -8 c15 -6 22 -17 23 -36
l1 -28 10 33 c8 22 17 32 32 33 l21 0 -21 10 c-11 6 -25 23 -31 37 l-11 27 -1
-27z"/>
</g>
</svg>
