<?xml version="1.0" encoding="UTF-8"?>
<svg version="1.1" xmlns="http://www.w3.org/2000/svg" width="100" height="100">
<path d="M0 0 C7.70921814 4.20004345 14.06080475 10.09683468 18 18 C18.828125 21.1328125 18.828125 21.1328125 19 24 C16.625 26.75 16.625 26.75 14 29 C13.67 29.66 13.34 30.32 13 31 C13.495 32.11375 13.495 32.11375 14 33.25 C15.28135389 36.7737232 15.1646337 38.43330931 14 42 C12.47134838 43.39855361 10.94241086 44.79680099 9.41015625 46.19140625 C7.60953116 48.50079522 7.39370782 50.23642789 7 53.125 C5.59978994 63.11679026 1.144419 71.06606674 -6.71875 77.3828125 C-15.6599068 83.7212353 -25.3979244 85.91876677 -36.3125 84.5234375 C-47.20522673 82.40188898 -55.58324345 76.30034098 -61.9375 67.1875 C-67.0197208 58.03588532 -67.90942528 48.17488263 -66 38 C-63.08905235 28.2468249 -56.7050392 20.20141527 -48 15 C-43.33862162 12.67673339 -38.97488022 10.93410551 -33.75 10.625 C-29.36187878 9.89364646 -28.14217843 8.70337126 -25.421875 5.375 C-23.62810768 3.64036786 -22.46602976 3.29905212 -20 3 C-17.24667526 3.43711542 -14.69068047 4.23764053 -12 5 C-11.38125 4.195625 -10.7625 3.39125 -10.125 2.5625 C-6.73132473 -1.52987312 -5.02795557 -1.2157511 0 0 Z M-4 5 C-1.64574897 12.7690284 4.36562817 17.78972557 11 22 C11.66 22 12.32 22 13 22 C11.19408999 15.57898662 6.09308818 10.2321137 0.6875 6.5 C-1.77810456 4.83754461 -1.77810456 4.83754461 -4 5 Z M-20 9 C-19.34 10.32 -18.68 11.64 -18 13 C-17.34 12.01 -16.68 11.02 -16 10 C-17.32 9.67 -18.64 9.34 -20 9 Z M-9 10 C-11.87202725 12.76028148 -11.87202725 12.76028148 -14 16 C-13.94272851 20.9008031 -11.05456231 23.61357819 -7.75 26.875 C-7.27175781 27.38546875 -6.79351562 27.8959375 -6.30078125 28.421875 C-4.71224395 30.08474847 -4.71224395 30.08474847 -2 32 C2.39872592 31.90395795 4.84559709 29.97415132 8 27 C8 26.34 8 25.68 8 25 C6.40910873 23.6584751 6.40910873 23.6584751 4.375 22.3125 C-0.2171172 18.99279893 -4.43455552 15.13088897 -7 10 C-7.66 10 -8.32 10 -9 10 Z M-25 13 C-25.99 13.66 -26.98 14.32 -28 15 C-26.33078791 25.73064916 -16.43634778 34.8058709 -8 41 C-4.74583992 42.86863534 -1.44103965 44.50576984 2 46 C2.99 44.68 3.98 43.36 5 42 C4.39414063 41.59910156 3.78828125 41.19820312 3.1640625 40.78515625 C-6.24426213 34.40196985 -14.31407277 27.78165641 -20.52734375 18.1640625 C-21.87351403 16.18587062 -23.2493995 14.61995867 -25 13 Z M-52.28125 25.27734375 C-58.57494171 31.58533931 -61.55646693 38.34495333 -62.25 47.1875 C-61.62828091 56.66871619 -58.10524769 65.24755398 -51.078125 71.7890625 C-43.80126046 77.51465747 -36.29916565 80.34796878 -27 80 C-16.36358337 78.29766136 -9.4113079 73.44343747 -2.56640625 65.29296875 C0.64336095 60.83691831 2 56.44042399 2 51 C1.27296875 50.69449219 0.5459375 50.38898437 -0.203125 50.07421875 C-15.0829525 43.30198957 -27.1395139 31.39742622 -33 16 C-40.86006877 16 -46.67518804 20.03834537 -52.28125 25.27734375 Z M6 34 C5.67 34.99 5.34 35.98 5 37 C7.475 37.495 7.475 37.495 10 38 C9.34 36.68 8.68 35.36 8 34 C7.34 34 6.68 34 6 34 Z " fill="#FFB39B" transform="translate(78,10)"/>
<path d="M0 0 C1.32 0.33 2.64 0.66 4 1 C4.01417969 1.73605469 4.02835938 2.47210938 4.04296875 3.23046875 C4.27600085 7.99817957 4.43465734 11.15198601 7.125 15.1875 C10.84901771 17.5352503 12.64290818 17.58094558 17 17 C18.46731873 16.52701814 19.9255629 16.02523156 21.375 15.5 C27.4959681 13.31393996 32.55324867 13.22519541 38.75 15.1875 C42.89200601 17.49746489 46.06542617 19.41385125 47.73828125 24.04296875 C48.41800159 27.4770341 48.46611317 29.95358529 47.02734375 33.18359375 C42.8418919 39.35101445 36.96526122 42.67824626 30 45 C19.71778201 45.67938416 12.00569834 45.38261335 3.8125 38.9375 C-2.65957507 32.86037439 -5.69043874 25.56224126 -6.140625 16.74609375 C-5.81339728 10.35606348 -4.02993893 4.96950334 0 0 Z M0 16 C-0.49658622 21.9590347 0.53245259 26.07395772 4 31 C8.5839826 35.88064953 13.01214159 39.52695749 19.83203125 40.3359375 C28.55558897 40.45026984 33.98310774 38.84621066 40.5625 33.125 C43.28134418 30.24793235 43.28134418 30.24793235 43.1875 26.875 C41.73537219 23.35932214 40.17517838 22.0411861 37 20 C31.87841106 18.29280369 27.6226063 18.64774032 22.625 20.5 C16.68054675 22.62663575 11.55414199 22.99327744 5.625 20.6875 C3.41177788 19.26471435 1.70373489 17.98769071 0 16 Z " fill="#FFB39B" transform="translate(25,41)"/>
<path d="M0 0 C0.66 0 1.32 0 2 0 C2.33 3.96 2.66 7.92 3 12 C5.64 12.33 8.28 12.66 11 13 C11 13.66 11 14.32 11 15 C8.36 15.33 5.72 15.66 3 16 C2.67 19.96 2.34 23.92 2 28 C1.34 28 0.68 28 0 28 C-0.33 24.04 -0.66 20.08 -1 16 C-3.64 15.67 -6.28 15.34 -9 15 C-9 14.34 -9 13.68 -9 13 C-6.36 12.67 -3.72 12.34 -1 12 C-0.67 8.04 -0.34 4.08 0 0 Z " fill="#FFB29A" transform="translate(15,4)"/>
<path d="M0 0 C0.66 0.33 1.32 0.66 2 1 C2 3.31 2 5.62 2 8 C3.65 8.33 5.3 8.66 7 9 C6.34 9.66 5.68 10.32 5 11 C4.01 11 3.02 11 2 11 C2 12.98 2 14.96 2 17 C1.34 17.33 0.68 17.66 0 18 C-0.33 15.69 -0.66 13.38 -1 11 C-2.65 10.67 -4.3 10.34 -6 10 C-5.34 9.34 -4.68 8.68 -4 8 C-3.01 8 -2.02 8 -1 8 C-0.67 5.36 -0.34 2.72 0 0 Z " fill="#FFB49B" transform="translate(89,74)"/>
</svg>
